<svg viewBox="0 0 34 35" fill="none" xmlns="http://www.w3.org/2000/svg">
<g id="Icon / baza /open">
<path id="Vector" d="M26.5056 11.9729C26.3739 11.8362 26.2173 11.7277 26.0446 11.6537C25.872 11.5797 25.6868 11.5415 25.4998 11.5415C25.3128 11.5415 25.1276 11.5797 24.955 11.6537C24.7824 11.7277 24.6257 11.8362 24.494 11.9729L18.0056 18.6521C17.8739 18.7888 17.7173 18.8972 17.5446 18.9713C17.372 19.0453 17.1868 19.0834 16.9998 19.0834C16.8128 19.0834 16.6276 19.0453 16.455 18.9713C16.2824 18.8972 16.1257 18.7888 15.994 18.6521L9.50564 11.9729C9.37394 11.8362 9.21726 11.7277 9.04462 11.6537C8.87199 11.5797 8.68682 11.5415 8.4998 11.5415C8.31279 11.5415 8.12762 11.5797 7.95499 11.6537C7.78235 11.7277 7.62567 11.8362 7.49397 11.9729C7.23012 12.2462 7.08202 12.6158 7.08202 13.001C7.08202 13.3863 7.23012 13.7559 7.49397 14.0292L13.9965 20.7229C14.7933 21.5422 15.8736 22.0024 16.9998 22.0024C18.1261 22.0024 19.2063 21.5422 20.0031 20.7229L26.5056 14.0292C26.7695 13.7559 26.9176 13.3863 26.9176 13.001C26.9176 12.6158 26.7695 12.2462 26.5056 11.9729V11.9729Z" fill="var(--fill-0, white)"/>
</g>
</svg>
