<svg viewBox="0 0 239 236" fill="none" xmlns="http://www.w3.org/2000/svg">
<g id="Layer_1" clip-path="url(#clip0_0_22)">
<path id="Vector" d="M236.077 102.839L125.502 2.34023C122.062 -0.791748 116.835 -0.791748 113.395 2.34023L2.95784 102.839C1.0662 104.56 0 106.969 0 109.516V227.017C0 232.007 4.02403 236.034 9.01108 236.034H230.023C235.01 236.034 239.034 232.007 239.034 227.017V109.516C239.034 106.969 237.968 104.56 236.077 102.839Z" fill="var(--fill-0, white)"/>
<g id="Group">
<path id="Vector_2" d="M124.539 145.792H108.58V138.151H150.334V117.157H87.5657V212.631H126.568C149.336 212.631 163.094 199.139 163.094 179.349C163.094 157.253 145.931 145.792 124.539 145.792ZM124.814 193.667H108.58V164.481H125.227C135.717 164.481 141.873 170.745 141.873 179.211C141.873 188.607 135.338 193.667 124.814 193.667Z" fill="var(--fill-0, #A0CD45)"/>
<path id="Vector_3" d="M87.6002 70.0395L114.737 63.4314L114.805 108.931L101.22 108.966L87.6002 70.0395Z" fill="var(--fill-0, #A0CD45)"/>
<path id="Vector_4" d="M149.749 69.9361L122.613 63.3968L122.681 108.931L136.232 108.897L149.749 69.9361Z" fill="var(--fill-0, #A0CD45)"/>
</g>
</g>
<defs>
<clipPath id="clip0_0_22">
<rect width="239" height="236" fill="white"/>
</clipPath>
</defs>
</svg>
