<svg viewBox="0 0 206 238" fill="none" xmlns="http://www.w3.org/2000/svg">
<g id="Layer_1" clip-path="url(#clip0_0_4)">
<path id="Vector" d="M206 175.247C206 168.926 203.66 163.824 199.176 160.246H205.288L205.164 155.145C204.917 145.166 199.191 137.843 189.539 134.375C189.503 133.663 189.46 132.945 189.416 132.226C186.415 87.5365 150.078 76.7959 134.075 63.6313C118.065 50.4667 116.735 33.1438 123.072 19.9792C129.41 6.80739 152.411 4.39074 152.411 4.39074C152.411 4.39074 137.404 -6.34992 113.407 5.77687C89.4028 17.9037 78.0658 43.8844 79.73 66.7519C81.3942 89.6193 98.0655 86.4987 94.3955 106.594C90.7327 126.682 63.393 125.303 56.7216 116.29C50.0502 107.283 51.7217 89.271 63.7273 85.1126C75.733 80.947 73.0586 80.2575 73.0586 80.2575C73.0586 80.2575 59.723 70.5619 38.0518 85.7948C25.472 94.6486 13.7861 111.442 9.7237 132.444H0V198.209H17.5434C17.5434 198.209 17.5216 198.238 17.5143 198.252C16.7076 199.435 16.1262 200.792 15.7992 202.287C15.5303 203.507 15.3922 204.798 15.3922 206.112C15.3922 207.498 15.5448 208.855 15.8501 210.154C16.2134 211.707 16.8312 213.108 17.6887 214.327C18.6335 215.67 19.8616 216.751 21.3514 217.535C22.8631 218.333 24.629 218.739 26.6057 218.739C28.0519 218.739 29.2801 218.558 30.3339 218.268L30.3775 218.311H40.2611V218.137C41.0023 218.355 41.8017 218.515 42.6375 218.609C66.4017 237.093 98.9376 243.588 127.731 232.681C137.44 229.001 146.059 224.139 153.559 218.304H184.917V201.772C184.917 200.328 184.561 199 183.9 197.831C197.737 195.502 206.007 187.28 206.007 175.233L206 175.247Z" fill="var(--fill-0, white)"/>
<g id="Group">
<path id="Vector_2" d="M174.823 158.548C174.482 158.519 174.147 158.468 173.842 158.388C172.498 158.047 171.546 157.213 171.546 155.725C171.546 153.512 173.915 152.75 175.746 152.75C176.175 152.75 176.611 152.786 177.025 152.866C178.588 153.142 179.888 153.94 179.947 155.268H200.186C200.026 148.744 196.93 144.026 191.989 141.044C191.829 140.949 191.669 140.855 191.502 140.761C191.226 140.608 190.949 140.456 190.666 140.311C190.659 140.311 190.651 140.304 190.644 140.296C190.448 140.195 190.252 140.1 190.048 140.006C189.794 139.883 189.532 139.766 189.271 139.658C185.339 137.959 180.579 137.125 175.368 137.125C170.157 137.125 164.765 138.206 160.557 140.238C159.663 140.666 158.82 141.138 158.021 141.653L151.321 160.108C151.633 161.052 152.025 161.908 152.491 162.699C152.571 162.83 152.65 162.961 152.73 163.091C153.057 163.606 153.421 164.085 153.813 164.535C155.223 166.161 157.018 167.395 159.068 168.338C159.126 168.367 159.191 168.389 159.249 168.418C160.645 169.049 162.149 169.55 163.719 169.949C163.719 169.949 163.719 169.949 163.726 169.949C167.229 170.842 171.088 171.263 174.838 171.582C176.022 171.698 176.96 171.865 177.694 172.083C177.795 172.112 177.897 172.148 177.999 172.177C178.319 172.286 178.602 172.409 178.835 172.547C179.038 172.663 179.205 172.794 179.351 172.939C179.779 173.36 179.961 173.89 179.961 174.55C179.961 175.472 179.532 176.096 178.842 176.502C178.74 176.561 178.638 176.611 178.529 176.662C178.311 176.756 178.079 176.844 177.825 176.909C177.577 176.974 177.309 177.025 177.032 177.061C176.604 177.119 176.153 177.148 175.681 177.148C175.092 177.148 174.496 177.105 173.944 177.003C172.28 176.691 170.95 175.813 170.95 173.875H150.18C150.252 186.917 161.226 193.121 174.024 193.528C174.358 193.506 174.692 193.492 175.034 193.492C175.448 193.492 175.848 193.513 176.248 193.542C181.756 193.448 187.534 192.447 192.134 190.001C192.541 189.783 192.948 189.558 193.333 189.319C193.478 189.232 193.616 189.137 193.755 189.05C198.1 186.198 201.036 181.793 201.036 175.254C201.036 160.769 186.073 159.47 174.845 158.555L174.823 158.548Z" fill="var(--fill-0, #A0CD45)"/>
<path id="Vector_3" d="M117.811 191.06L119.751 190.581L120.805 190.313L126.997 188.767V192.243H135.761L146.699 162.126L148.232 157.917L154.227 141.399L154.562 140.478V138.424H153.951H139.308H137.2H133.327L129.141 150.282L128.021 155.682L127.287 159.223L126.968 160.776L125.107 169.739H124.955L122.651 158.642L120.921 150.282L116.808 138.424H108.465H106.358V139.193L102.956 144.527L101.612 146.632L99.1483 150.493L99.9187 152.597L100.326 153.708L114.264 191.946L115.02 191.757L117.811 191.06Z" fill="var(--fill-0, #A0CD45)"/>
<path id="Vector_4" d="M148.617 198.47C146.095 198.47 143.872 198.768 141.946 199.363L142.643 203.499C144.22 202.969 146.088 202.708 148.261 202.708C148.472 202.708 148.697 202.715 148.951 202.73C149.198 202.744 149.475 202.759 149.78 202.781V203.819H148.624C143.385 203.819 140.768 205.553 140.768 209.015C140.768 209.9 140.892 210.64 141.132 211.25C141.372 211.86 141.72 212.346 142.171 212.716C142.622 213.086 143.174 213.355 143.821 213.521C144.475 213.688 145.209 213.775 146.023 213.775C146.459 213.775 146.909 213.725 147.374 213.63C147.839 213.536 148.297 213.398 148.748 213.224C149.198 213.05 149.62 212.832 150.012 212.571C150.405 212.317 150.746 212.026 151.037 211.707L152.672 213.34H155.565V203.231C155.565 200.052 153.254 198.463 148.624 198.463L148.617 198.47ZM149.773 208.528C149.773 208.819 149.656 209.066 149.438 209.276C149.184 209.465 148.632 209.566 147.803 209.566H146.597V208.383C146.597 207.854 146.757 207.52 147.076 207.375C147.396 207.229 147.905 207.157 148.595 207.157H149.773V208.528Z" fill="var(--fill-0, #A0CD45)"/>
<path id="Vector_5" d="M68.9307 213.34H74.7155V198.898L68.9307 199.624V213.34Z" fill="var(--fill-0, #A0CD45)"/>
<path id="Vector_6" d="M50.4935 199.559C49.9412 199.167 49.2144 198.884 48.3133 198.717C47.4121 198.55 46.293 198.463 44.9412 198.463C42.2596 198.463 40.3119 199.094 39.0983 200.35C37.8846 201.612 37.2815 203.528 37.2815 206.112C37.2815 208.695 37.8846 210.619 39.091 211.874C40.2974 213.137 42.245 213.761 44.9485 213.761C47.056 213.761 49.1926 213.471 51.3583 212.897L50.6824 208.659C48.8511 209.24 47.0342 209.523 45.2392 209.523C44.9485 209.523 44.6578 209.515 44.3744 209.501C44.0837 209.486 43.793 209.457 43.5096 209.428V208.42C45.1302 208.42 46.4892 208.325 47.5793 208.144C48.6694 207.962 49.5487 207.672 50.2028 207.288C50.8641 206.903 51.3292 206.409 51.6126 205.807C51.8961 205.205 52.0342 204.486 52.0342 203.652C52.0342 202.643 51.9179 201.801 51.6853 201.141C51.4528 200.473 51.0603 199.943 50.508 199.551L50.4935 199.559ZM46.6709 203.855C46.6709 204.385 46.511 204.718 46.1985 204.864C45.886 205.009 45.3773 205.081 44.6651 205.081H43.4878V203.906C43.4878 203.376 43.6476 203.042 43.9601 202.897C44.2726 202.752 44.7813 202.679 45.4935 202.679H46.6781V203.862L46.6709 203.855Z" fill="var(--fill-0, #A0CD45)"/>
<path id="Vector_7" d="M64.563 204.45C63.8 204.123 62.9497 203.913 62.0195 203.826C61.0893 203.739 60.1808 203.695 59.2942 203.695V202.781C59.7085 202.73 60.0864 202.701 60.4134 202.686C60.7404 202.672 61.0166 202.665 61.2419 202.665C62.0122 202.665 62.768 202.715 63.5093 202.81C64.2505 202.904 64.9918 203.064 65.7476 203.289L66.4235 199.37C64.6212 198.775 62.6372 198.477 60.4715 198.477C58.3059 198.477 56.6271 198.811 55.3844 199.486C54.1344 200.161 53.5022 201.424 53.5022 203.289C53.5022 204.218 53.633 205.023 53.9019 205.698C54.1635 206.373 54.6141 206.917 55.2536 207.331C55.8858 207.752 56.7216 208.057 57.7608 208.26C58.8 208.463 60.0864 208.558 61.627 208.558V209.472C61.2564 209.523 60.8785 209.552 60.4861 209.566C60.0936 209.581 59.6794 209.588 59.2433 209.588C58.2986 209.588 57.3902 209.523 56.5181 209.392C55.6533 209.261 54.8103 209.08 53.9891 208.841L53.2623 212.934C55.2245 213.492 57.3829 213.775 59.7448 213.775C60.4207 213.775 61.0529 213.754 61.6343 213.717C62.223 213.674 62.768 213.616 63.284 213.536C63.9453 213.442 64.4758 213.282 64.8828 213.057C65.2898 212.832 65.6895 212.534 66.0746 212.164C66.4453 211.794 66.7142 211.301 66.8959 210.684C67.0703 210.067 67.1575 209.363 67.1575 208.579C67.1575 207.454 66.9104 206.569 66.4235 205.923C65.9366 205.27 65.3043 204.784 64.5412 204.457L64.563 204.45Z" fill="var(--fill-0, #A0CD45)"/>
<path id="Vector_8" d="M178.638 199.348C177.992 198.905 177.149 198.63 176.109 198.521C175.768 198.484 175.405 198.47 175.012 198.47C174.729 198.47 174.46 198.485 174.184 198.514C172.984 198.63 171.894 199.007 170.913 199.646C170.048 198.862 168.668 198.463 166.771 198.463C164.874 198.463 163.319 199.051 162.142 200.219L160.841 198.898H157.948V213.333H163.733V204.552C163.733 204.232 163.784 203.985 163.879 203.804C163.973 203.63 164.111 203.492 164.285 203.405C164.46 203.318 164.663 203.267 164.903 203.245C165.136 203.231 165.383 203.223 165.637 203.223H166.044V213.333H171.829V204.385C171.844 204.109 171.916 203.898 172.032 203.731C172.156 203.572 172.301 203.456 172.469 203.383C172.636 203.311 172.832 203.267 173.057 203.252C173.282 203.238 173.508 203.231 173.733 203.231H174.14V213.34H179.925V201.787C179.925 200.741 179.496 199.929 178.638 199.341V199.348Z" fill="var(--fill-0, #A0CD45)"/>
<path id="Vector_9" d="M122.011 198.216V195.146L121.684 195.226L116.227 196.59V198.898H114.78V202.628H116.227V210.619C116.227 211.359 116.401 211.918 116.757 212.288C117.113 212.665 117.622 212.977 118.298 213.217C119.097 213.507 120.82 213.652 123.458 213.652L123.726 209.414C123.407 209.399 123.101 209.37 122.811 209.327C122.52 209.283 122.258 209.24 122.019 209.196V202.628H124.017V198.898H122.019V198.216H122.011Z" fill="var(--fill-0, #A0CD45)"/>
<path id="Vector_10" d="M90.0423 198.216L88.4726 196.714L86.4959 198.216L85.9436 198.637C85.5729 198.572 85.1878 198.528 84.788 198.506C84.3883 198.485 83.9523 198.47 83.4872 198.47C80.9364 198.47 79.0832 198.898 77.9422 199.747C76.8012 200.596 76.2344 201.859 76.2344 203.528C76.2344 205.197 76.5978 206.453 77.3172 207.244C78.044 208.035 79.0905 208.565 80.4713 208.819L79.6064 211.301C79.6064 211.475 79.621 211.613 79.6573 211.7C79.6864 211.787 79.7954 211.903 79.9698 212.048C80.1151 212.193 80.4567 212.339 81.009 212.484C81.2852 212.564 81.6922 212.622 82.2372 212.665C82.7823 212.709 83.4872 212.723 84.3593 212.723V213.732C84.2285 213.746 84.0468 213.761 83.8142 213.768C83.5817 213.775 83.3055 213.783 82.9857 213.783C80.7983 213.783 78.8797 213.5 77.23 212.941L76.4815 217.244C78.7271 217.825 80.8128 218.108 82.7241 218.108C83.6689 218.108 84.6136 218.079 85.5584 218.014C86.4959 217.948 87.3389 217.767 88.0874 217.462C88.836 217.157 89.4391 216.686 89.9043 216.04C90.3694 215.394 90.6019 214.501 90.6019 213.347C90.6019 212.658 90.5002 212.085 90.304 211.642C90.1005 211.192 89.7807 210.822 89.3301 210.531C88.8796 210.241 88.2909 210.031 87.5714 209.893C86.852 209.755 85.9654 209.653 84.9189 209.595L85.0424 208.899C86.0235 208.819 86.8447 208.666 87.4988 208.456C88.1601 208.238 88.6906 207.941 89.1048 207.556C89.5118 207.171 89.8098 206.7 89.9842 206.134C90.1586 205.575 90.2531 204.914 90.2531 204.16C90.2531 203.086 90.1223 202.222 89.8679 201.562L91.5321 199.638L90.0641 198.231L90.0423 198.216ZM84.57 204.196C84.57 204.711 84.4101 205.038 84.0904 205.183C83.7706 205.328 83.2619 205.401 82.5715 205.401H81.6776V203.521C81.6776 203.006 81.8375 202.679 82.15 202.534C82.4625 202.389 82.9639 202.316 83.6543 202.316H84.57V204.196Z" fill="var(--fill-0, #A0CD45)"/>
<path id="Vector_11" d="M138.363 199.559C137.811 199.167 137.084 198.884 136.183 198.717C135.282 198.55 134.155 198.463 132.811 198.463C130.129 198.463 128.181 199.094 126.968 200.35C125.754 201.612 125.151 203.528 125.151 206.112C125.151 208.695 125.754 210.619 126.96 211.874C128.167 213.137 130.114 213.761 132.818 213.761C134.925 213.761 137.062 213.471 139.228 212.897L138.552 208.659C136.72 209.24 134.904 209.523 133.109 209.523C132.818 209.523 132.527 209.515 132.244 209.501C131.953 209.486 131.662 209.457 131.379 209.428V208.42C133 208.42 134.359 208.325 135.449 208.144C136.539 207.962 137.418 207.672 138.072 207.288C138.734 206.903 139.199 206.409 139.482 205.807C139.765 205.205 139.904 204.486 139.904 203.652C139.904 202.643 139.787 201.801 139.555 201.141C139.322 200.473 138.93 199.943 138.377 199.551L138.363 199.559ZM134.54 203.855C134.54 204.385 134.38 204.718 134.068 204.864C133.755 205.009 133.247 205.081 132.534 205.081H131.35V203.906C131.35 203.376 131.51 203.042 131.822 202.897C132.135 202.752 132.643 202.679 133.356 202.679H134.533V203.862L134.54 203.855Z" fill="var(--fill-0, #A0CD45)"/>
<path id="Vector_12" d="M105.972 199.348C105.209 198.76 104.141 198.47 102.782 198.47C100.711 198.47 98.785 199.094 96.9972 200.35L95.551 198.905H92.6586V213.34H98.4434V204.341C98.4434 203.877 98.6105 203.572 98.9521 203.441C99.2864 203.303 99.7878 203.238 100.449 203.238H101.343V213.347H107.128V201.794C107.128 200.749 106.743 199.936 105.987 199.348H105.972Z" fill="var(--fill-0, #A0CD45)"/>
<path id="Vector_13" d="M74.403 194.362C74.2504 194.246 74.0542 194.152 73.8362 194.072C73.7126 194.029 73.5745 193.992 73.4292 193.963C73.0222 193.883 72.4917 193.84 71.8522 193.84C71.2127 193.84 70.6821 193.883 70.2606 193.963C69.8391 194.043 69.5121 194.174 69.2723 194.362C69.0325 194.544 68.8653 194.791 68.7636 195.081C68.749 195.124 68.7345 195.175 68.7272 195.226C68.6546 195.495 68.6182 195.814 68.6182 196.177C68.6182 196.721 68.6982 197.149 68.858 197.454C69.0179 197.759 69.2432 197.991 69.5339 198.136C69.5848 198.165 69.6429 198.187 69.6938 198.209C69.9481 198.318 70.2316 198.383 70.5586 198.412C70.951 198.441 71.3798 198.463 71.8449 198.463C72.4844 198.463 73.015 198.426 73.4219 198.354C73.6181 198.318 73.7926 198.274 73.9524 198.209C74.1269 198.143 74.2722 198.064 74.403 197.969C74.6428 197.788 74.81 197.548 74.9117 197.258C75.0062 196.968 75.0571 196.605 75.0571 196.177C75.0571 195.749 75.0062 195.378 74.9117 195.081C74.8173 194.783 74.6501 194.544 74.403 194.362Z" fill="var(--fill-0, #A0CD45)"/>
<path id="Vector_14" d="M29.9923 194.529L29.4909 194.566V198.898H26.1624C25.0723 198.898 24.1566 199.094 23.4154 199.486C22.6741 199.878 22.0854 200.408 21.6349 201.061C21.1843 201.721 20.8645 202.483 20.6683 203.361C20.4721 204.239 20.3776 205.154 20.3776 206.119C20.3776 207.128 20.4866 208.1 20.7047 209.029C20.9227 209.958 21.2715 210.771 21.7657 211.475C22.2526 212.172 22.8921 212.73 23.6843 213.144C24.4691 213.558 25.443 213.768 26.5985 213.768C28.8005 213.768 30.3121 213.224 31.126 212.135L32.376 213.34H35.2684V194.137L32.9792 194.312L29.985 194.537L29.9923 194.529ZM29.4909 208.528C29.44 208.978 29.2656 209.261 28.9458 209.385C28.6333 209.508 28.1464 209.566 27.4851 209.566H26.5912V203.913C26.5912 203.383 26.7511 203.049 27.0636 202.904C27.3761 202.759 27.8848 202.686 28.597 202.686H29.4909V208.536V208.528Z" fill="var(--fill-0, #A0CD45)"/>
<path id="Vector_15" d="M70.842 191.394V176.713L74.7155 182.497L76.823 185.654L77.0774 186.031L81.2343 192.243H105.02V191.554L89.9769 170.573L86.0017 165.029L91.2196 156.843L93.6833 152.982L95.7109 149.803L97.7384 146.625L100.202 142.764L101.547 140.659L102.484 139.186V138.417H80.3114L76.9975 144.259L76.823 144.571L75.0498 147.67L74.7082 148.265L70.8348 155.028V138.424H49.8176V142.205C51.2202 143.025 52.4993 143.997 53.6112 145.144C53.633 145.166 53.662 145.195 53.6838 145.224C54.4687 146.044 55.1809 146.951 55.7914 147.945C57.5501 150.805 58.5675 154.448 58.5675 159.027C58.5675 163.606 57.5501 167.235 55.7914 170.102C55.1882 171.081 54.4978 171.974 53.7274 172.787C53.7129 172.801 53.6984 172.823 53.6766 172.838C52.5429 174.02 51.242 175.029 49.8103 175.871V192.236H70.8275V191.387L70.842 191.394Z" fill="var(--fill-0, #A0CD45)"/>
<path id="Vector_16" d="M26.9982 192.243V179.71H28.8441C34.2292 179.681 39.4835 178.919 43.8366 176.96C44.8904 176.488 45.8932 175.944 46.8235 175.327C47.9136 174.608 48.9165 173.781 49.8176 172.838C51.5182 171.06 52.8481 168.875 53.6838 166.212C54.3452 164.122 54.7013 161.741 54.7013 159.027C54.7013 156.313 54.3452 153.918 53.6838 151.828C52.8408 149.165 51.5182 146.987 49.8176 145.224C48.9165 144.288 47.9136 143.468 46.8235 142.749C46.0677 142.256 45.2755 141.806 44.4398 141.407C44.2363 141.312 44.0401 141.218 43.8293 141.131C43.7421 141.095 43.6622 141.058 43.575 141.022C43.0517 140.797 42.5067 140.587 41.9616 140.391C41.6927 140.296 41.4311 140.209 41.1549 140.122C40.6172 139.948 40.0648 139.796 39.5053 139.65C39.2218 139.578 38.9457 139.512 38.655 139.447C38.5678 139.425 38.4878 139.411 38.4006 139.389C37.703 139.237 36.9908 139.106 36.264 138.99C33.8731 138.613 31.3658 138.438 28.8295 138.424H5.98102V192.236C7.27461 192.236 8.56093 192.236 9.85451 192.236H27.0054L26.9982 192.243ZM26.7656 154.644H29.3092C29.7888 154.644 30.2321 154.687 30.6391 154.753C31.2496 154.854 31.7873 155.036 32.2452 155.282C32.4269 155.377 32.594 155.478 32.7539 155.594C32.892 155.696 33.0301 155.805 33.1536 155.921C33.9893 156.719 34.3963 157.837 34.3963 159.1C34.3963 160.602 33.8585 161.865 32.7539 162.692C32.485 162.895 32.1725 163.069 31.8382 163.215C31.6493 163.294 31.4458 163.367 31.2278 163.432C31.1115 163.469 30.9879 163.498 30.8644 163.527C30.7917 163.541 30.719 163.563 30.6464 163.577C30.2394 163.657 29.7961 163.708 29.3164 163.715H26.7729V154.644H26.7656Z" fill="var(--fill-0, #A0CD45)"/>
</g>
</g>
<defs>
<clipPath id="clip0_0_4">
<rect width="206" height="238" fill="white"/>
</clipPath>
</defs>
</svg>
